<?xml version="1.0"?>
<svg xmlns="http://www.w3.org/2000/svg" viewBox="0 0 64 64" width="512" height="512"><g id="outline"><path d="M35,2a14.994,14.994,0,0,0-4,29.446V35H19a3.99,3.99,0,0,0-1.313,7.761A4,4,0,0,0,21,49h3.586L27,51.414V55H25a1,1,0,0,0-1,1v5a1,1,0,0,0,1,1H45a1,1,0,0,0,1-1V56a1,1,0,0,0-1-1H43V51.192l5.929-14.821a1,1,0,0,0-.26-1.114l-5.983-5.385A14.994,14.994,0,0,0,35,2ZM24,47H21a2,2,0,0,1,0-4h3Zm0-8v2H19a2,2,0,0,1,0-4h8.128l-2.522,1.081A1,1,0,0,0,24,39ZM44,57v3H26V57Zm2.812-20.724L41.071,50.629A1,1,0,0,0,41,51v4H29V51a1,1,0,0,0-.293-.707L26,47.586V39.659l6.394-2.74A1,1,0,0,0,33,36V24a2,2,0,0,1,4,0V36a1,1,0,0,0,1,1h2V35H39V29.245ZM38.4,21.916A1,1,0,0,0,39,21V17a1,1,0,0,0-1-1H33V14h6V12H36V10H34v2H32a1,1,0,0,0-1,1v4a1,1,0,0,0,1,1h5v2H31v2h.556A3.959,3.959,0,0,0,31,24v1.065a9,9,0,1,1,8,0V24A3.956,3.956,0,0,0,38.4,21.916Zm2.722,6.547-1.6-1.44A11,11,0,1,0,31,27.245v2.123a13.006,13.006,0,1,1,10.12-.9Z"/><path d="M15.293,2.293l-4,4,1.414,1.414L15,5.414V29h2V5.414l2.293,2.293,1.414-1.414-4-4A1,1,0,0,0,15.293,2.293Z"/><path d="M53,47V29.414l2.293,2.293,1.414-1.414-4-4a1,1,0,0,0-1.414,0l-4,4,1.414,1.414L51,29.414V47Z"/></g></svg>
