<svg height="512" viewBox="0 0 64 64" width="512" xmlns="http://www.w3.org/2000/svg"><g id="Filled_outline" data-name="Filled outline"><circle cx="35" cy="17" fill="#d6c527" r="14"/><circle cx="35" cy="17" fill="#fcf05a" r="10"/><path d="m38 22h-7v-2h6v-2h-5a1 1 0 0 1 -1-1v-4a1 1 0 0 1 1-1h7v2h-6v2h5a1 1 0 0 1 1 1v4a1 1 0 0 1 -1 1z" fill="#e37f46"/><path d="m34 10h2v3h-2z" fill="#e37f46"/><g fill="#32b1cc"><path d="m15 3h2v26h-2z"/><path d="m19.293 7.707-3.293-3.293-3.293 3.293-1.414-1.414 4-4a1 1 0 0 1 1.414 0l4 4z"/><path d="m51 27h2v20h-2z"/><path d="m55.293 31.707-3.293-3.293-3.293 3.293-1.414-1.414 4-4a1 1 0 0 1 1.414 0l4 4z"/></g><path d="m38 24a3 3 0 0 0 -3-3 3 3 0 0 0 -3 3v12l-7 3v9l3 3v5h14v-5l6-15-10-9z" fill="#ffd782"/><path d="m25 42h-6a3 3 0 0 1 -3-3 3 3 0 0 1 3-3h13l-7 3z" fill="#f7c469"/><path d="m21 42h4a0 0 0 0 1 0 0v6a0 0 0 0 1 0 0h-4a3 3 0 0 1 -3-3 3 3 0 0 1 3-3z" fill="#dba54d"/><path d="m25 56h20v5h-20z" fill="#32b1cc"/><path d="m40 37h-2a1 1 0 0 1 -1-1v-9h2v8h1z" fill="#dba54d"/><path d="m35 2a14.994 14.994 0 0 0 -4 29.446v3.554h-12a3.99 3.99 0 0 0 -1.313 7.761 4 4 0 0 0 3.313 6.239h3.586l2.414 2.414v3.586h-2a1 1 0 0 0 -1 1v5a1 1 0 0 0 1 1h20a1 1 0 0 0 1-1v-5a1 1 0 0 0 -1-1h-2v-3.808l5.929-14.821a1 1 0 0 0 -.26-1.114l-5.983-5.385a14.994 14.994 0 0 0 -7.686-27.872zm-11 45h-3a2 2 0 0 1 0-4h3zm0-8v2h-5a2 2 0 0 1 0-4h8.128l-2.522 1.081a1 1 0 0 0 -.606.919zm20 18v3h-18v-3zm2.812-20.724-5.741 14.353a1 1 0 0 0 -.071.371v4h-12v-4a1 1 0 0 0 -.293-.707l-2.707-2.707v-7.927l6.394-2.74a1 1 0 0 0 .606-.919v-12a2 2 0 0 1 4 0v12a1 1 0 0 0 1 1h2v-2h-1v-5.755zm-8.412-14.36a1 1 0 0 0 .6-.916v-4a1 1 0 0 0 -1-1h-5v-2h6v-2h-3v-2h-2v2h-2a1 1 0 0 0 -1 1v4a1 1 0 0 0 1 1h5v2h-6v2h.556a3.959 3.959 0 0 0 -.556 2v1.065a9 9 0 1 1 8 0v-1.065a3.956 3.956 0 0 0 -.6-2.084zm2.722 6.547-1.6-1.44a11 11 0 1 0 -8.522.222v2.123a13.006 13.006 0 1 1 10.12-.9z"/><path d="m15.293 2.293-4 4 1.414 1.414 2.293-2.293v23.586h2v-23.586l2.293 2.293 1.414-1.414-4-4a1 1 0 0 0 -1.414 0z"/><path d="m53 47v-17.586l2.293 2.293 1.414-1.414-4-4a1 1 0 0 0 -1.414 0l-4 4 1.414 1.414 2.293-2.293v17.586z"/></g></svg>