<svg id="Capa_1" enable-background="new 0 0 512.36 512.36" height="512" viewBox="0 0 512.36 512.36" width="512" xmlns="http://www.w3.org/2000/svg"><g><path d="m211.554 191.374c-2.793-3.059-7.537-3.273-10.596-.48s-3.274 7.537-.48 10.596c6.846 7.496 12.336 16.054 16.319 25.437 1.213 2.856 3.988 4.571 6.907 4.571.977 0 1.971-.192 2.927-.598 3.813-1.619 5.592-6.021 3.973-9.834-4.647-10.95-11.057-20.94-19.05-29.692z"/><path d="m415.161 302.801v-93.243c54.244-3.858 97.199-49.219 97.199-104.427 0-57.731-46.968-104.699-104.699-104.699s-104.699 46.968-104.699 104.699c0 11.854 1.984 23.252 5.63 33.885l-66.861 41.81c-24.563-32.49-63.515-53.526-107.292-53.526-74.129 0-134.439 60.309-134.439 134.44s60.31 134.44 134.44 134.44c43.472 0 82.183-20.746 106.774-52.851l64.432 40.292c-1.756 7.59-2.684 15.493-2.684 23.608 0 57.731 46.968 104.699 104.699 104.699s104.699-46.968 104.699-104.699c0-55.209-42.955-100.569-97.199-104.428zm42.031-122.926c-14.203 9.443-31.234 14.954-49.531 14.954s-35.328-5.511-49.531-14.954v-1.198c0-27.312 22.22-49.531 49.531-49.531s49.531 22.219 49.531 49.531zm-77.413-59.387c-8.552 4.114-16.06 10.06-22.02 17.325-6.356-9.663-9.796-20.975-9.796-32.682 0-13.001 4.185-25.038 11.268-34.851-.604 3.078-.927 6.256-.927 9.509 0 16.876 8.518 31.794 21.475 40.699zm-6.475-40.699c0-18.944 15.413-34.357 34.357-34.357s34.357 15.413 34.357 34.357c0 18.945-15.413 34.357-34.357 34.357s-34.357-15.412-34.357-34.357zm62.239 40.699c12.957-8.905 21.475-23.823 21.475-40.699 0-3.251-.322-6.428-.925-9.505 7.083 9.812 11.267 21.847 11.267 34.847 0 11.707-3.438 23.022-9.792 32.687-5.96-7.266-13.471-13.214-22.025-17.33zm-27.882-105.056c49.46 0 89.699 40.239 89.699 89.699 0 24.587-9.946 46.893-26.023 63.112-.962-5.889-2.724-11.509-5.17-16.751 10.467-13.179 16.194-29.441 16.194-46.361 0-41.189-33.51-74.699-74.699-74.699s-74.699 33.51-74.699 74.699c0 16.92 5.727 33.181 16.194 46.361-2.446 5.242-4.208 10.863-5.17 16.751-16.077-16.219-26.023-38.525-26.023-63.112-.002-49.46 40.237-89.699 89.697-89.699zm-218.467 352.436c-16.411 8.502-35.031 13.311-54.754 13.311-19.809 0-38.504-4.853-54.968-13.424v-25.274c0-4.775 2.107-9.264 5.781-12.315l28.175-23.398c4.673 6.509 12.3 10.761 20.906 10.761s16.233-4.252 20.906-10.761l28.174 23.397c3.674 3.051 5.781 7.54 5.781 12.315v25.388zm-19.848-147.045v19.489c0 19.248-15.659 34.907-34.906 34.907s-34.906-15.659-34.906-34.907v-19.489zm-69.812-15v-28.286l9.542 3.135c.756.249 1.546.375 2.341.375h48.247c5.339 0 9.683 4.344 9.683 9.683v15.093zm45.526 83.246v2.734c0 5.915-4.812 10.727-10.727 10.727s-10.726-4.812-10.726-10.727v-2.783c3.49.776 7.112 1.198 10.833 1.198 3.645 0 7.195-.403 10.62-1.149zm59.134 69.565v-16.152c0-.991-.056-1.974-.149-2.95 22.186-19.854 34.834-47.965 34.834-77.792 0-1.93-.067-3.944-.212-6.339-.25-4.134-3.796-7.288-7.938-7.034-4.134.25-7.284 3.804-7.034 7.938.126 2.086.185 3.813.185 5.435 0 23.566-9.225 45.887-25.583 62.558-1.508-2.079-3.277-3.991-5.3-5.671l-32.937-27.353v-8.154c14.536-8.733 24.287-24.652 24.287-42.809v-26.989-22.592c0-13.61-11.073-24.683-24.683-24.683h-47.046l-13.824-4.542c-3.3-1.085-6.952-.517-9.765 1.521-2.814 2.038-4.495 5.328-4.495 8.803v41.494 26.989c0 18.07 9.653 33.927 24.073 42.686v8.277l-32.937 27.352c-1.981 1.645-3.717 3.513-5.205 5.541-16.274-16.662-25.465-38.97-25.465-62.428 0-22.328 8.311-43.726 23.402-60.251 2.793-3.059 2.578-7.803-.48-10.596s-7.802-2.578-10.596.48c-17.621 19.297-27.326 44.286-27.326 70.367 0 29.679 12.584 57.778 34.635 77.62-.104 1.032-.163 2.073-.163 3.122v15.996c-29.952-21.724-49.472-56.992-49.472-96.738 0-65.86 53.581-119.44 119.44-119.44s119.44 53.581 119.44 119.44c0 39.841-19.613 75.183-49.686 96.894zm45.475-27.709c12.189-20.225 19.211-43.9 19.211-69.185 0-24.983-6.858-48.392-18.779-68.456l64.452-40.304c16.322 31.632 48.293 53.924 85.609 56.579v93.243c-40.927 2.911-75.427 29.446-89.9 66.014zm130.11 91.661c-8.554 4.115-16.064 10.064-22.024 17.33-6.355-9.665-9.792-20.98-9.792-32.688 0-12.995 4.181-25.027 11.26-34.837-.602 3.073-.918 6.248-.918 9.496-.001 16.876 8.517 31.794 21.474 40.699zm-6.475-40.699c0-18.944 15.413-34.357 34.357-34.357s34.357 15.413 34.357 34.357c0 18.945-15.413 34.357-34.357 34.357s-34.357-15.412-34.357-34.357zm83.888 100.086c-14.203 9.443-31.234 14.954-49.531 14.954s-35.328-5.511-49.531-14.954v-1.198c0-27.312 22.22-49.531 49.531-49.531s49.531 22.219 49.531 49.531zm14.144-11.632c-.961-5.884-2.722-11.499-5.164-16.738 7.015-8.844 11.964-19.189 14.407-30.213.896-4.044-1.655-8.049-5.7-8.945-4.038-.894-8.048 1.655-8.945 5.7-1.563 7.05-4.416 13.751-8.367 19.771-5.96-7.267-13.47-13.215-22.024-17.33 12.957-8.905 21.475-23.823 21.475-40.699 0-3.25-.322-6.426-.925-9.501 4.135 5.731 7.307 12.251 9.22 19.368 1.076 4 5.193 6.369 9.189 5.297 4-1.075 6.372-5.189 5.297-9.189-8.755-32.578-38.419-55.331-72.138-55.331-41.189 0-74.699 33.51-74.699 74.699 0 16.92 5.727 33.181 16.194 46.361-2.446 5.242-4.208 10.863-5.17 16.751-16.077-16.219-26.023-38.525-26.023-63.112 0-49.46 40.239-89.699 89.699-89.699s89.699 40.239 89.699 89.699c-.001 24.586-9.948 46.891-26.025 63.111z"/></g></svg>