<?xml version="1.0" encoding="iso-8859-1"?>
<!-- Generator: Adobe Illustrator 19.0.0, SVG Export Plug-In . SVG Version: 6.00 Build 0)  -->
<svg version="1.1" id="Capa_1" xmlns="http://www.w3.org/2000/svg" xmlns:xlink="http://www.w3.org/1999/xlink" x="0px" y="0px"
	 viewBox="0 0 512 512" style="enable-background:new 0 0 512 512;" xml:space="preserve">
<circle style="fill:#94E061;" cx="255.688" cy="255.667" r="248.38"/>
<path style="fill:#E9EFF4;" d="M185.426,493.887c-15.676-4.609-30.891-10.767-45.407-18.395
	c16.955-49.046,19.395-109.169-13.286-161.604c-28.132-45.127-74.079-71.72-118.177-83.386c1.58-15.316,4.569-30.431,8.917-45.147
	C78.397,194.272,138.12,235.74,173.4,300.722C208.58,365.523,210.899,437.993,185.426,493.887z"/>
<path style="fill:#70CF3D;" d="M374.193,473.952c-110.819,60.163-247.19,27.272-319.32-72.08
	c75.988,67.621,189.136,84.016,283.68,32.691c120.556-65.451,165.223-216.239,99.772-336.795
	c-5.289-9.737-11.127-18.975-17.475-27.702c20.904,18.595,38.999,41.078,53.125,67.091
	C539.426,257.714,494.749,408.501,374.193,473.952z"/>
<path style="fill:#D3DCE2;" d="M196.108,463.52c-2.709,10.537-6.278,20.694-10.687,30.361c-0.98-0.29-1.959-0.58-2.929-0.88
	c-8.145-2.519-16.168-5.439-24.026-8.771c-1.353-0.573-18.597-8.324-18.452-8.745c2.459-7.118,4.619-14.476,6.398-22.004
	C162.568,458.502,179.223,461.871,196.108,463.52z"/>
<path style="fill:#E9EFF4;" d="M502.957,279.308c-1.44,15.026-4.249,29.862-8.378,44.317
	c-59.543-10.097-117.477-51.165-151.997-114.758c-34.61-63.752-37.429-134.912-13.246-190.416
	c14.606,4.539,28.792,10.407,42.368,17.565c-14.236,42.938-17.155,95.293,4.689,143.139
	C401.905,235.07,452.961,266.221,502.957,279.308z"/>
<g>
	<path style="fill:#D3DCE2;" d="M502.952,279.303c-0.557,5.812-1.306,11.377-2.239,17.125c-0.351,2.163-5.711,27.264-6.138,27.192
		c-15.076-2.559-30.051-7.098-44.567-13.496c5.938-14.576,10.487-29.682,13.586-45.107
		C476.459,271.125,489.745,275.844,502.952,279.303z"/>
	<path style="fill:#D3DCE2;" d="M502.952,279.303c-0.18,1.879-0.38,3.749-0.6,5.618c-0.11,0.94-0.23,1.869-0.35,2.809
		c-0.13,0.93-0.25,1.869-0.39,2.799c-0.11,0.8-0.23,1.6-0.35,2.399c-0.17,1.17-0.36,2.329-0.55,3.499
		c-0.2,1.15-0.4,2.309-0.61,3.459c-0.06,0.33-0.12,0.66-0.18,0.99c-0.22,1.19-0.45,2.379-0.69,3.569c0,0.01,0,0.02-0.01,0.03
		c-0.25,1.26-0.51,2.509-0.79,3.759c-0.16,0.78-0.34,1.56-0.52,2.339c-0.16,0.71-0.32,1.42-0.49,2.129
		c-0.21,0.92-0.44,1.839-0.67,2.749c-0.23,0.91-0.46,1.819-0.7,2.729c-0.47,1.819-0.96,3.629-1.48,5.438
		c-15.076-2.559-30.051-7.098-44.567-13.496c5.938-14.576,10.487-29.682,13.586-45.107
		C476.459,271.125,489.745,275.844,502.952,279.303z"/>
</g>
<path d="M480.898,133.913C448.88,74.937,396.187,31.687,332.258,11.759c-0.26-0.096-0.521-0.177-0.784-0.243
	c-0.924-0.285-1.84-0.582-2.768-0.857C263.174-8.754,194.003-1.487,133.936,31.123C73.869,63.734,30.096,117.782,10.682,183.316
	c-19.415,65.532-12.147,134.703,20.463,194.77c32.611,60.066,86.66,103.839,152.193,123.253c24.067,7.13,48.613,10.661,73.03,10.661
	c42.069,0,83.732-10.49,121.739-31.124c14.445-7.842,28.151-17.069,40.736-27.424c3.197-2.631,3.657-7.356,1.026-10.554
	c-2.631-3.197-7.355-3.656-10.554-1.026c-11.849,9.749-24.755,18.439-38.362,25.826c-53.984,29.308-115.775,36.855-174.945,21.577
	c23.593-58.852,17.947-129.848-15.683-191.795c-13.365-24.616-30.332-46.411-50.432-64.779c-3.057-2.794-7.8-2.581-10.593,0.477
	c-2.793,3.057-2.58,7.8,0.477,10.593c18.865,17.239,34.802,37.717,47.369,60.863c31.773,58.527,36.993,125.447,14.395,180.445
	c-11.074-3.592-21.778-7.937-32.061-12.979c11.472-36.422,22.044-100.725-16.047-161.842
	C100.482,257.4,48.717,234.694,17.06,225.341c1.361-10.428,3.402-20.828,6.148-31.145c18.399,3.418,36.524,9.872,53.968,19.244
	c1.129,0.607,2.343,0.895,3.542,0.895c2.671,0,5.259-1.433,6.611-3.951c1.959-3.648,0.591-8.194-3.057-10.153
	c-18.313-9.838-37.359-16.708-56.734-20.481C46.896,121.586,86.956,73.691,141.091,44.302
	c55.068-29.898,118.264-37.156,178.51-20.635c-22.33,58.284-16.288,128.299,16.726,189.113
	c32.922,60.647,88.205,103.827,149.09,116.962c-8.696,27.042-22.258,52.806-40.589,75.949c-2.571,3.246-2.023,7.962,1.223,10.533
	c3.245,2.57,7.962,2.024,10.533-1.223C520.35,334.494,529.894,224.16,480.898,133.913z M120.705,318.189
	c34.065,54.656,25.592,112.555,15.291,146.746c-38.387-21.957-70.043-54.167-91.672-94.005
	c-22.004-40.531-31.747-85.463-28.773-130.382C45.161,249.721,91.248,270.936,120.705,318.189z M467.719,141.068
	c21.917,40.369,31.381,85.007,28.85,128.873c-33.966-10.386-86.458-35.35-113.02-93.564c-22.823-49.99-15.458-99.551-7.045-129.052
	C414.685,69.275,446.177,101.387,467.719,141.068z M349.507,205.625C318.39,148.308,312.748,82.491,333.96,28.084
	c9.997,3.408,19.692,7.419,29.032,12.022c-9.39,31.273-18.672,86.456,6.915,142.498c29.756,65.214,88.853,91.964,125.302,102.581
	c-1.235,10.134-3.113,20.195-5.632,30.12C432.534,303.353,380.538,262.789,349.507,205.625z"/>
<g>
</g>
<g>
</g>
<g>
</g>
<g>
</g>
<g>
</g>
<g>
</g>
<g>
</g>
<g>
</g>
<g>
</g>
<g>
</g>
<g>
</g>
<g>
</g>
<g>
</g>
<g>
</g>
<g>
</g>
</svg>
