<svg height="482pt" viewBox="0 -66 482 482" width="482pt" xmlns="http://www.w3.org/2000/svg"><path d="m474.210938 298.03125v44.199219h-234.210938v-121.429688c.328125.007813.660156.007813 1 .007813 25.300781 0 45.808594-20.507813 45.808594-45.808594s-20.507813-45.808594-45.808594-45.808594c-.339844 0-.671875 0-1 .007813v-121.429688h234.210938v55.921875h-.441407c-64.710937 0-117.167969 52.457032-117.167969 117.167969s52.457032 117.171875 117.167969 117.171875zm0 0" fill="#00acea"/><path d="m474.210938 63.691406v234.339844h-.441407c-64.710937 0-117.167969-52.460938-117.167969-117.171875s52.457032-117.167969 117.167969-117.167969zm0 0" fill="#00efd1"/><path d="m241 129.191406c25.300781 0 45.808594 20.507813 45.808594 45.808594s-20.507813 45.808594-45.808594 45.808594c-.339844 0-.671875 0-1-.007813-24.902344-.546875-44.808594-20.890625-44.808594-45.800781s19.90625-45.253906 44.808594-45.800781c.328125-.007813.660156-.007813 1-.007813zm0 0" fill="#f4b844"/><path d="m240 342v.230469h-232.210938v-44.199219h.449219c64.714844 0 117.171875-52.460938 117.171875-117.171875s-52.457031-117.167969-117.171875-117.167969h-.449219v-55.921875h232.210938v121.429688c-24.902344.546875-44.808594 20.890625-44.808594 45.800781s19.90625 45.253906 44.808594 45.800781zm0 0" fill="#00acea"/><path d="m8.238281 63.691406c64.714844 0 117.171875 52.457032 117.171875 117.167969s-52.457031 117.171875-117.171875 117.171875h-.449219v-234.339844zm0 0" fill="#00efd1"/><path d="m482 8c0-4.417969-3.582031-8-8-8h-466c-4.417969 0-8 3.582031-8 8v334c0 4.417969 3.582031 8 8 8h466c4.417969 0 8-3.582031 8-8zm-466 63.957031c56 3.890625 101.621094 51.246094 101.621094 108.898438 0 57.65625-45.621094 105.015625-101.621094 108.910156zm224.171875 65.242188c.023437 0 .050781-.097657.078125-.097657.183594-.007812.367188-.101562.558594-.101562h.191406c20.84375.105469 37.6875 17.035156 37.6875 37.882812 0 20.84375-16.84375 37.773438-37.6875 37.878907-.253906 0-.5.023437-.828125.015625-20.535156-.472656-36.933594-17.25-36.933594-37.789063 0-20.539062 16.398438-37.316406 36.933594-37.789062zm225.828125 152.5625c-56-3.898438-101.609375-51.246094-101.609375-108.898438 0-57.652343 45.609375-105.011719 101.609375-108.90625zm0-233.835938c-65 3.921875-117.609375 58.453125-117.609375 124.933594s52.609375 121.011719 117.609375 124.941406v28.199219h-218v-105.660156c26.769531-3.523438 46.78125-26.339844 46.78125-53.339844s-20.011719-49.816406-46.78125-53.339844v-105.660156h218zm-234-39.925781v105.9375c-25.871094 4.402344-44.796875 26.820312-44.796875 53.066406 0 26.242188 18.925781 48.660156 44.796875 53.066406v105.929688h-216v-28.199219c65-3.917969 117.621094-58.453125 117.621094-124.9375 0-66.480469-52.621094-121.019531-117.621094-124.9375v-39.925781zm0 0" fill="#083863"/></svg>