<svg enable-background="new 0 0 140 140" height="512" viewBox="0 0 140 140" width="512" xmlns="http://www.w3.org/2000/svg"><circle cx="70" cy="70" fill="#4da0dc" r="64"/><path d="m37.494072 95.7106476.0106812.0106201c1.9845581 2.5002441 4.2491455 4.7670898 6.7508545 6.7509766l31.2744141 31.2744141c30.9961548-2.6552734 55.6697464-27.3908691 58.231575-58.4135742l-32.2780229-32.2779542c-6.5721436-7.6676025-15.8912354-12.9119873-26.4418945-14.1922607 0-.0100098 0-.0100098 0-.0200195-.1199951-.0100098-.25-.0200195-.3800049-.0300293-.4299927-.0500488-.8599854-.0900879-1.2999878-.1199951-.1300049-.0100098-.25-.0300293-.3800049-.0400391v.0100098c-.9799805-.0699463-1.9799805-.1199951-2.9799805-.1199951-.5 0-.9899902.0200195-1.4799805.0400391.0099487-.0100098.0099487-.0100098.0199585-.0200195-.1599731.0100098-.3099976.0200195-.4699707.0300293-.1799927.0100098-.3599854.0200195-.5400391.0300293-.3800049.0198975-.7699585.0499268-1.1499634.0898438-2.0800171.1800537-4.1099854.5100098-6.0900269.9901123 0-.0100098 0-.0100098 0-.0100098-.0799561.0100098-.1499634.039917-.2199707.0599365-.8800049.2099609-1.7600098.4599609-2.6199951.7299805-.1300049 0-.2600098.0200195-.4000244.0700684-.0899658.0400391-.1799927.0800781-.2700195.1400146-.0099487.0100098-.0099487.0198975-.0199585.0299072-10.2800293 3.460083-18.7399902 10.8300781-23.6400146 20.3500977 0-.0100098 0-.0100098 0-.0200195-.039978.0700684-.0700073.1500244-.1099854.2299805-.2700195.5400391-.5300293 1.0800781-.7800293 1.6400146-.0800171.1600342-.1499634.3199463-.2199707.4799805-.2600098.5899658-.5 1.1800537-.7300415 1.7800293-.039978.1099854-.0899658.2299805-.1399536.3399658-.5300293 1.4399414-.9900513 2.9200439-1.3600464 4.4200439-.0499878.1900635-.0899658.3800049-.1300049.5599365-.1299438.5700684-.2599487 1.130127-.3699951 1.7000732-.039978.2299805-.0799561.4599609-.1199951.6899414-.0899658.5500488-.1799927 1.1099854-.25 1.6600342-.0299683.2299805-.0599976.4599609-.0899658.6799316-.0700073.6101074-.1199951 1.2299805-.1600342 1.8400879-.0199585.1699219-.0299683.3399658-.039978.5100098-.0499878.8000488-.0800171 1.6099854-.0800171 2.4199219 0 9.7194824 3.3521729 18.6447754 8.9541016 25.7072754z" opacity=".1"/><ellipse cx="70" cy="70" fill="#de594e" rx="41.456" ry="41.456" transform="matrix(.987 -.16 .16 .987 -10.309 12.117)"/><path d="m111.1208878 75.3042221c-2.6098938 20.387558-20.0261383 36.1474228-41.1162643 36.1474228-22.8970375 0-41.4576454-18.5605469-41.4576454-41.4475403 0-6.8259354 1.6462727-13.2704773 4.5774002-18.9520493-.2208138 1.726593-.3312187 3.4932594-.3312187 5.2800827 0 22.8970413 18.5605507 41.4575882 41.4575882 41.4575882 16.0610579.0000001 29.9839782-9.1347045 36.87014-22.4855041z" fill="#cd5248"/><g fill="#ededed"><path d="m68.8000336 111.441597c-1.0640411-.0401306-2.1280823-.110405-3.1720886-.2208099-20.2971306-23.4893188-20.3774567-58.8235931-.2509537-82.413269 1.0440063-.1204529 2.0979996-.2007751 3.1620407-.2409668-21.4114113 23.2885436-21.3210411 59.696968.2610016 82.8750457z"/><path d="m58.7016487 109.8856964c.110405-.0200348.2409058-.0200348.3714066.0100479-.6725388-.2308578-1.3551865-.4818192-2.0377769-.7428207-.6022644-.220871-1.0840759-.9435883-1.0740891-1.5860443.0200958-.6022644.4517288-.8934097.9837799-.7428131-.6625519-.2710495-1.3250427-.5520859-1.9775467-.8431702-.5621376-.2509537-.9837227-.9235535-.9837227-1.5358658v-.1003571c.0501785-.5922775.5019112-.8633347 1.0239143-.6926346-.6424599-.3012009-1.2849159-.612381-1.927372-.933548-.5721817-.2911453-.973671-1.0540543-.8833618-1.6864624.0903702-.5821686.5521469-.8230743 1.0640411-.6223602-.6223602-.3312149-1.2547684-.6825867-1.8670845-1.0338974-.5520859-.321228-.9134445-1.0941849-.7829437-1.7165451.110405-.5822372.5922165-.8030472 1.0941277-.5721893-.6123161-.3613586-1.2145805-.7428131-1.8068581-1.1242676-.542038-.3513107-.8431702-1.1443634-.6926346-1.7566757.1505966-.5721817.6424561-.7629089 1.1242676-.5119553-.5822296-.3914413-1.1643982-.7929916-1.7365799-1.2145767-.522007-.3714066-.7830086-1.1745071-.5922813-1.7767792.1806793-.5621338.6825905-.7227173 1.1443672-.4517288-.5520859-.4215851-1.1142235-.8532181-1.6663094-1.3049469-.4919205-.3915024-.7127304-1.2045898-.4919205-1.7968063.2108231-.5521469.7227783-.6926346 1.1745071-.3915024-.542099-.4517288-1.0740891-.9135056-1.5960922-1.3852692-.4717636-.4215927-.6524429-1.2447281-.3915024-1.8269577.2309189-.5319901.752861-.6424561 1.1845551-.321228-.5119553-.4717636-1.0239105-.963623-1.5258179-1.4655304-.4416809-.4416809-.5721817-1.2748642-.2910843-1.836998.2709885-.5220032.7929916-.6023254 1.2045288-.2610016-.4818115-.5019073-.963623-1.0138702-1.4354477-1.5458603-.4316368-.4617767-.5119591-1.3050079-.200779-1.8470459.2911491-.5019073.8130913-.5621338 1.2146416-.1907272-.4617767-.5319901-.9134445-1.0740891-1.3551292-1.616127-.4015503-.4918594-.4416809-1.3350906-.1004181-1.8570404.321228-.4919205.843235-.5220032 1.2246895-.1305008-.431633-.5521469-.8532829-1.1142807-1.274868-1.6864624-.3714066-.5118942-.3714066-1.3551254.0100479-1.8570328.3412628-.4717636.8632698-.4717636 1.2246284-.0702744-.4014893-.5721817-.7929916-1.1543503-1.1844978-1.7466278-.3412628-.5319977-.3011322-1.365181.1004181-1.8570404.3714104-.4517288.8933525-.4216461 1.2346764 0-.3714066-.5922775-.7327652-1.1945419-1.0941887-1.8169022-.3111801-.542099-.2208099-1.3752213.200779-1.8470497.3915024-.431633.9135056-.3714066 1.2246857.0702744-.3312759-.6123123-.6625519-1.2346725-.9837799-1.8670807-.2910843-.5621338-.1605835-1.3953209.2911453-1.8470497.4115372-.4115372.9335403-.321228 1.2246246.1405487-.3111801-.6324081-.6022644-1.2748642-.8934097-1.9273071-.2509537-.5721855-.0802612-1.4053688.3915024-1.8269539.4416809-.3814545.9536362-.2710495 1.2146378.2007751-.2710495-.6424561-.5320511-1.3050079-.7830048-1.9675026-.2308578-.5922775 0-1.405365.4918594-1.8068542.4517288-.3614197.9636879-.2309189 1.1945457.2610016-.2308578-.6625519-.4617195-1.3350945-.6725426-2.0076332-.1907272-.6023254.0702744-1.4154129.5822334-1.7868195.4818115-.3413239.973671-.1706314 1.1945419.3312759-.2007751-.6825867-.3915024-1.3652382-.5721817-2.0578117-.1605835-.6123734.1505966-1.405365.6825867-1.7466927.5019073-.321228.9837189-.1204529 1.1744461.3915062-.1605835-.6926384-.3111801-1.385273-.4516678-2.0879555-.1305008-.6223602.2208099-1.405304.7728958-1.7164879.522007-.2911453.9937706-.0803223 1.1544151.4517326-.1305008-.7026863-.2409058-1.4053688-.3413239-2.1180992-.0903091-.6324081.3111801-1.3952599.8833618-1.6763573.5320511-.2710495.9937668-.0200958 1.1142197.5119553-.0802612-.7127304-.1505356-1.4154129-.210762-2.1381302-.0501785-.6324081.3915062-1.385273.9837227-1.6362267.542038-.2409058.9937668.0301437 1.084137.5721817-.0401917-.7127304-.0702744-1.4354477-.0903702-2.158226-.0100479-.5420399.3312759-1.1443043.8130875-1.4554844.0903702-.0602894.1806793-.10042.2710495-.1405506.1405487-.0501785.2710495-.0702744.3915024-.0702744.3513145.0300827.6123161.3011341.6624947.7026844 0-.3011932 0-.6023273.0100479-.9034595.7127304-.2208099 1.4354477-.4215851 2.1682129-.5922165-.0099869.3914413-.0099869.7829437-.0200348 1.1644001-.0100479.6324081-.4818726 1.2949009-1.0740891 1.5157719-.542038.2007751-.9937668-.0803223-1.0539932-.63241 0 .7127323.0200348 1.4254017.0501785 2.1280842.0300827.6223602-.4015503 1.3149986-.9737358 1.5559044-.5319901.220871-.9937668-.0300827-1.0941238-.5721817.0501785.7127304.110405 1.4154129.1806793 2.1080475.0702744.622364-.321228 1.3250465-.8833618 1.596035-.5119553.2610016-.9837189.0301437-1.1142235-.5019073.0803261.7026825.190731 1.3953171.301136 2.0879517.1003571.6123161-.2509575 1.3350945-.7929955 1.6261787-.5019073.2810974-.9837799.0803223-1.1443634-.4416809.1305008.6926346.2710495 1.3852692.4215851 2.0578079.1305008.6023293-.1806793 1.3451424-.7026825 1.6663704-.4818115.3011322-.973671.1305008-1.164402-.3814545.1605835.6825867.3413277 1.3651733.5319939 2.0276642.1706924.5922813-.1003571 1.3451424-.6022682 1.6964531-.4717636.3312759-.973671.1807404-1.1945419-.321167.2108231.6725388.4215851 1.3350296.652504 1.9975853.1907272.5821686-.0301437 1.3350296-.5119553 1.7164841-.4517288.3513718-.9636841.2309189-1.2045898-.2609406.2409058.6624908.4918594 1.3149986.752861 1.9573936.2308578.5621338.0501785 1.3350906-.4115372 1.7366409-.431633.3714066-.9536362.2810364-1.2246895-.1907272.2811012.642395.5621376 1.274807.8632698 1.9072151.2509537.5520859.110466 1.3250427-.321167 1.7566757-.411602.3915062-.9336052.321228-1.2246895-.1305008.3011322.632412.6223602 1.2447853.95364 1.8570976.2910843.5319901.1806793 1.3149948-.2308617 1.7667274-.3814545.4115372-.9135056.3814545-1.2246857-.0602264.3413239.6022644.6926346 1.2045288 1.0439453 1.7968063.321228.5220032.2610016 1.3049469-.1305008 1.7767715-.3613586.431633-.8933487.4215851-1.2346725 0 .3814545.5922165.7629089 1.1744537 1.1443634 1.7365875.3513107.5119553.3312759 1.294899-.0401306 1.7867584-.3413239.4517288-.863327.4718246-1.2246857.0702744.4015503.5721817.8130875 1.1242676 1.2346725 1.6764145.3714066.4818115.3915024 1.2748032.0502396 1.7767105-.3111801.4718323-.8331833.5220108-1.2246857.1405563.4416809.542038.8733139 1.0740891 1.3250427 1.6060791.3915024.4617767.4617767 1.2447815.1505966 1.7767715-.3011932.4818115-.8130875.5621338-1.2146378.2007751.4617767.5220032.9234924 1.0338974 1.3953171 1.5258179.4215889.4516678.5319939 1.2346802.2409096 1.7767181-.2610054.5019073-.7729607.6023254-1.1945457.2610016.4818115.5019073.973671.9837189 1.4755821 1.4555435.4416809.431633.5922775 1.2045898.3413239 1.7566757-.2409058.5220032-.7528648.652504-1.1945457.3312759.522007.4717636 1.0339622.9335403 1.5659523 1.3852692.4617767.391449.652504 1.1644058.4215851 1.7365875-.210762.5319901-.7126694.6825867-1.1643982.3915024.542038.4416809 1.084137.8733139 1.6261749 1.294899.4918594.3814545.7227173 1.1343155.5220032 1.7165451-.1806793.542038-.6725998.7227173-1.1443634.4617157.5621338.4115982 1.1343155.8130951 1.7064972 1.2146454.5019112.3412628.7728996 1.0941238.6123161 1.6864014-.1505966.5520859-.632412.7629089-1.1142235.5119553.5821686.3915024 1.164402.7629089 1.7566795 1.1343155.5319901.321228.8431702 1.0539932.7126694 1.6562576-.1204529.5621338-.5922165.7930603-1.0840759.5822372.6022644.3513718 1.2145767.6926346 1.826889 1.0339584.5421028.2910843.8934135 1.0138016.8031044 1.6261749-.0903702.5721817-.5521507.8231354-1.064045.6324081.632412.321228 1.2547722.642395 1.8871803.9435883.5621338.2709885.9535751.973671.9033966 1.5859833-.0602264.5822372-.5019073.8633347-1.0239105.6926422.6424561.2911453 1.29496.5721817 1.9374199.8432312.5821686.2409058 1.0138016.9234924.9937668 1.5559006-.0200958.5721817-.4517288.8833618-.9837837.7428131.6625557.2610016 1.3350945.5119553 1.9976463.7428131.5922165.2108231 1.064045.8733139 1.0840759 1.505722.0100479.5822372-.3914413.9135132-.9335403.7930603.3312759.110405.652504.2208099.9837837.3312149-.6424596-.1404871-1.2748678-.3111796-1.897228-.4918589z"/><path d="m73.1967545 111.331192c.1404877-.210762.3814545-.3412628.6825867-.3513107-.652504-.0702744-1.3049469-.1405487-1.9674988-.2308578-.5922165-.0702744-1.1142273-.6224213-1.1644058-1.2146378-.0401917-.5420456.3412628-.9034653.8532257-.8833694-.6424637-.0903702-1.2949066-.2007751-1.9474106-.321228-.5721817-.110405-1.0640411-.6825867-1.0740891-1.2648163-.0100479-.542038.3915024-.8833618.9034576-.8331223-.6424561-.1305008-1.2748642-.2710495-1.9173203-.4216461-.5621338-.1405487-1.0138016-.7327652-.9937668-1.3149948.0301437-.542038.4517288-.8532181.9536362-.7829437-.6324081-.1606445-1.2547684-.3312836-1.8771286-.5119629-.5621414-.1706314-.9736786-.7830048-.9134521-1.3551865.0501785-.5319901.4918671-.8230743.9837265-.7327652-.6123123-.1907272-1.2246933-.3915024-1.8370018-.6123123-.4818153-.1706314-.843174-.6926346-.843174-1.2045898 0-.0602264.0099869-.1204529.0200348-.1806793.0803223-.5320511.5320549-.7929916 1.0239105-.6825867-.6022644-.220871-1.1945419-.4517288-1.7968063-.7026825-.5320511-.2108231-.8733139-.8632736-.7428741-1.4254074.110466-.5220032.5822296-.7629089 1.0641022-.6123123-.5922775-.2509537-1.1745071-.5220032-1.7566757-.7930527-.5119591-.2409058-.8131523-.9033966-.6625557-1.4555435.1505966-.5118942.622364-.7327652 1.0941887-.5621338-.5621338-.2810364-1.1343193-.5721817-1.6964531-.8833618-.5019073-.2709885-.7729568-.9435959-.5822296-1.4856339.1706314-.5019073.6624908-.6926346 1.1242676-.4918594-.5520859-.3111801-1.1041718-.6324081-1.6462708-.973732-.4918594-.2910843-.7227173-.973671-.5019073-1.505722.2007751-.4918594.7026825-.6524429 1.1544113-.4416809-.542038-.3312149-1.0740891-.6825867-1.596096-1.0439453-.4717636-.321228-.6624908-1.0138702-.4215851-1.5258255.2308578-.4818115.7428169-.6223602 1.1744499-.3813934-.5119553-.3614197-1.0238533-.7428741-1.5358086-1.1243286-.4517288-.3412628-.6023254-1.0539932-.3312759-1.5458527.2509537-.4717636.7729568-.5721817 1.1945457-.3111801-.5019112-.3915024-.9937706-.7929916-1.4755821-1.2146378-.431694-.3613586-.542099-1.074028-.2509537-1.5559082.2810364-.4517288.8030396-.5319901 1.2045288-.2509537-.4717636-.4115372-.9435883-.8431702-1.405304-1.2748032-.4115982-.3915024-.4918594-1.1042328-.1606445-1.5759964.2911453-.431633.8231354-.4818726 1.2146378-.1806793-.4517288-.4416809-.9034576-.8934097-1.3350906-1.3551865-.4014893-.4115372-.431633-1.1242752-.0903091-1.576004.321228-.4115372.8532181-.4416809 1.2246246-.110405-.4215851-.4717636-.8431702-.9435883-1.2648163-1.4253998-.3714066-.431633-.3714066-1.1443634 0-1.5759964.3513718-.4015503.8733139-.4015503 1.2347336-.0501785-.4015503-.4919205-.8031006-.9837799-1.1945419-1.4957352-.3413239-.4416199-.3011932-1.1644058.0903091-1.5659561.3613586-.3813934.8833618-.3513107 1.2246857.0100479-.3714066-.5119553-.7428131-1.0238495-1.1042328-1.5458527-.321228-.4718246-.2509537-1.184494.1606445-1.5759964.3915024-.3613586.9134445-.3011322 1.2346725.0803223-.3513107-.5220032-.6926346-1.064045-1.0338974-1.606144-.2911453-.4818115-.1807404-1.1945419.2509537-1.5559006.4014893-.3412628.9234924-.2610016 1.2246246.1405487-.321228-.542038-.6324081-1.1041756-.9335403-1.6663704-.2810974-.5019073-.1305008-1.2045288.3312759-1.5458527.4115372-.321228.9335442-.2007751 1.2045326.2108231-.2910843-.5621338-.5721245-1.1343193-.843174-1.7165489-.2409058-.5119553-.0602264-1.2045898.4115372-1.5258179.4416847-.3011322.9435921-.1605835 1.2045937.2710495-.2610016-.5721817-.5119553-1.164402-.752861-1.7566795-.2208099-.5319901.0100479-1.2146378.4918594-1.505722.4517288-.2810364.9536362-.110405 1.184494.3312759-.2308578-.5922775-.4516678-1.1945419-.6524429-1.7968712-.1907272-.542038.0702744-1.2145767.5721817-1.4856262.4717636-.2509537.963623-.0602264 1.164402.4015503-.190731-.6123123-.3814583-1.2246857-.5520897-1.8470497-.1606445-.5520859.1405487-1.2145767.6624947-1.4555435.4818726-.2208099.9536362 0 1.1443634.4617767-.1706314-.6123123-.321228-1.2346725-.4517288-1.8670845-.1305008-.5621338.2108231-1.2146378.7428131-1.4253998.4919205-.2108231.9536362.0401306 1.1142807.5219421-.1305008-.6324081-.2409058-1.2648163-.3513718-1.9072113-.0903091-.5621376.2911453-1.1945457.8331871-1.385273.5019035-.1806793.9536324.0903091 1.0841331.5821686-.0903702-.6324081-.1706924-1.2748032-.2309189-1.9273071-.0602264-.5721855.3513718-1.1844978.9135132-1.3450813.5119553-.1606445.9435883.1404877 1.0439453.6323471-.0501785-.6323471-.0903091-1.2848511-.1204529-1.937355-.0200958-.5821686.431633-1.1744499.9937668-1.3049507.5320511-.1305008.9435883.1907272 1.0138626.6926384-.0100479-.6424599-.0100479-1.2949028 0-1.9574547.0100479-.5821686.5019073-1.1543522 1.084137-1.2648182.5319901-.0903091.9335403.2509537.973671.7528629.0200958-.6423969.0602264-1.3049488.110466-1.9573936.0501785-.5922775.5821762-1.1343174 1.1644058-1.2146397.542038-.0702744.9234924.2910862.9335403.8030415.0301437-.3714066.0803223-.742815.1305008-1.1142216.6926346.0401306 1.3752213.110405 2.0578079.1907272-.0602264.3714085-.1003571.742815-.1505356 1.1041737-.0602264.5721817-.5621338 1.064043-1.1343155 1.1343174-.5320511.0602264-.9235535-.2910843-.9335403-.8030415-.0602264.6525059-.110466 1.2949009-.1405487 1.9373589-.0301437.5621338-.5019073 1.084137-1.0640411 1.184494-.5220108.0803223-.933548-.2509537-.9737396-.752861-.0200348.6424561-.0300827 1.2849121-.0200348 1.927372 0 .5621338-.431633 1.1041718-.9837799 1.2246246-.5118942.110405-.9435883-.1907272-1.0138016-.6926346.0200348.6424561.0501785 1.2849121.1003571 1.9173203.0300827.5621376-.3613586 1.1242714-.9034576 1.274807-.5019073.1305008-.9535751-.1505356-1.0539932-.6424599.0602264.6424599.1305008 1.274868.2108231 1.8972282.0702744.5621338-.2911453 1.1343193-.8231354 1.3149986-.4918594.1606445-.9536362-.1003571-1.0941925-.5821724.1004257.6323509.2108307 1.2547722.3212357 1.8771324.110405.542038-.2208099 1.1343155-.7428207 1.3450775-.4818115.1806793-.9536324-.0501785-1.1142197-.5219421.1305046.6223602.2709923 1.2346764.4316368 1.8469887.130497.542038-.1606445 1.1443634-.6725426 1.3752213-.4718246.2108231-.9536362.0100479-1.1443634-.4617157.1706314.6123123.3513107 1.2246284.5319901 1.816906.1706924.5319901-.0903091 1.1543503-.5821686 1.405304-.4617767.2409058-.9536362.0602264-1.1644592-.3915024.2007751.6023254.4115982 1.1945419.6324081 1.7767754.1907272.5220032-.0300827 1.1544113-.5119553 1.4253998-.4416847.2610016-.9435921.110466-1.1844978-.3312149.2309189.5922165.4718246 1.1744461.7227821 1.7365837.2208099.5119553.0401306 1.1544113-.4216499 1.4555435-.431633.2810364-.9435883.1505356-1.2045288-.2710495.2609406.5721817.542038 1.1343155.8230743 1.6964531.2509537.4918594.0903702 1.1343155-.3513107 1.4655914-.4115372.3011322-.9335403.2007141-1.2146378-.2007751.2911453.5520859.6023254 1.1041718.9135056 1.6362228.2710495.4818153.1505356 1.1343193-.2710495 1.48563-.4014893.321228-.9234924.2509537-1.2246246-.1405487.321228.542099.6524429 1.0740891.9937668 1.5960922.3011322.4617805.2208099 1.1142235-.1907272 1.48563-.3814545.3413239-.9034615.3011322-1.2246895-.0702744.3513756.5220032.7127342 1.0339584 1.0740929 1.5358658.321228.4416809.2710495 1.1041718-.110405 1.4956741-.3613586.3613586-.8833656.3513107-1.2346764-.0100479.3814545.501915.7728996.9937744 1.164402 1.475647.3413239.4215851.3312759 1.0840759-.0401306 1.4956741-.3413239.3814545-.8632698.4014893-1.2246895.0602264.4015503.4818115.8130913.9536362 1.2347374 1.405304.3613586.4115982.3814545 1.0740891.0401306 1.505722-.321228.4015503-.843235.4416809-1.2246284.1205139.431633.4617233.8632698.9034042 1.3049507 1.3450851.3915024.3915024.4517288 1.0439453.1305008 1.4956741-.3011932.4115982-.8231354.4818726-1.2146416.1907272.4517326.431633.9034615.8532791 1.3651772 1.2648163.4115982.3714066.5019073 1.0239105.2108231 1.4956741-.2810974.431633-.7929916.5320511-1.2045937.2509537.4718285.4116058.95364.8130951 1.4354515 1.1945496.431633.3513718.5520859 1.0038147.2810974 1.4856873-.2509537.4416199-.7629089.5721207-1.184494.3111801.4918594.3813934.9937668.7628479 1.4956741 1.1242676.4517288.321228.6123123.963623.3613586 1.4655304-.2208099.4617767-.7327652.6123734-1.1643982.3814545.5118942.3513718 1.0338974.7026901 1.5559006 1.044014.4617195.2910843.6624947.9335403.4416847 1.4454956-.200779.4717636-.6926384.6524429-1.1544151.4416199.542099.3312759 1.0841408.652504 1.6161308.9536362.4818726.2810974.7127304.9034576.5220032 1.4254608-.1806793.4918594-.6624908.6926346-1.1242676.5118942.5520859.3011932 1.1142197.5922775 1.6663055.8733139.5019073.2509613.7629089.8633347.6023254 1.3953247-.1505966.5019073-.6223602.7328262-1.0941849.5721817.5721817.2710495 1.1443634.5320511 1.7165451.7830048.5019112.2308578.8030396.8331223.6725388 1.3752213-.1204529.5019073-.5822296.7629089-1.0640411.6223602.5922813.2509537 1.1744461.4818115 1.7667236.7026825.5220108.2007141.8532257.7929993.7528687 1.3450851-.0903702.5019073-.5420456.7930527-1.0239182.6725388.5922852.220871 1.1945496.4216461 1.796875.6123734.5319901.1806793.9033966.752861.8331223 1.3049469-.0602264.5220032-.4918594.8231354-.9837189.7327652.6123123.1907272 1.2246857.3613586 1.836998.5220032.542038.1505356.9435883.7026825.9134445 1.2648163-.0300827.5219498-.4416809.8532257-.9435883.7929993.6223602.1505966 1.2547684.3011322 1.8771286.431633.5521469.110405.9837799.652504.9837799 1.2146378 0 .5319901-.3814545.8833618-.8934097.8431702.6324081.1204529 1.2748718.2309189 1.90728.3312759.5621338.0903702 1.0338974.6123123 1.0640411 1.1744461.0401306.5220032-.321228.8934097-.8231354.8934097.6324081.0903702 1.2748032.1706314 1.9072113.2409058.5721817.0602264 1.084137.5521545 1.1544113 1.1242752.0702744.5220032-.2810974.9235535-.7929916.9336014.3714066.0300827.7428131.0602264 1.1041718.0903091-.7629091.1003569-1.5358659.1806792-2.3087617.2409056z"/></g></svg>