<svg id="Capa_1" enable-background="new 0 0 512 512" height="512" viewBox="0 0 512 512" width="512" xmlns="http://www.w3.org/2000/svg"><g><g><path clip-rule="evenodd" d="m13.295 83.593 199.867 253.369h33.672l9.181-47.462-212.84-235.827c-8.439-7.986-21.669-8.215-29.88 0-8.24 8.243-7.214 20.793 0 29.92z" fill="#fe8607" fill-rule="evenodd"/></g><g><path clip-rule="evenodd" d="m289.687 433.969c27.229 29.664 39.574 40.617 91.066 24.815l24.121-7.416 41.998-44.924-8.496-44.952-68.457 20.993c-15.596 4.792-33.957-6.446-46.902-18.711l-24.178-26.812-39.061 7.216-3.764 47.091z" fill="#fe8607" fill-rule="evenodd"/></g><g><path clip-rule="evenodd" d="m404.874 451.368 50.494-15.488c19.16-5.876 24.206-4.336 32.247-25.414l14.341-37.565c7.926-20.736-3.592-29.806-20.928-24.501l-42.653 13.092z" fill="#f8f2f0" fill-rule="evenodd"/></g><g><path clip-rule="evenodd" d="m95.608 187.959h68.742l-34.043-37.707h-64.437z" fill="#f8f2f0" fill-rule="evenodd"/></g><g><path clip-rule="evenodd" d="m257.697 141.923c33.815 0 61.215-12.322 61.215-27.553v-40.817h-122.43v40.816c0 15.232 27.4 27.554 61.215 27.554z" fill="#668d97" fill-rule="evenodd"/></g><g><path clip-rule="evenodd" d="m196.482 73.553c0 15.203 27.4 27.553 61.215 27.553s61.215-12.35 61.215-27.553c0-15.231-27.4-27.553-61.215-27.553s-61.215 12.322-61.215 27.553z" fill="#7ca2b1" fill-rule="evenodd"/></g><g><path clip-rule="evenodd" d="m188.984 363.774 279.87-310.102c8.411-7.986 21.669-8.215 29.88 0 8.211 8.243 7.185 20.793 0 29.921l-276.392 350.376c-27.257 29.664-39.603 40.617-91.095 24.815l-74.615-22.904c-19.131-5.876-24.178-4.336-32.247-25.414l-14.341-37.565c-7.926-20.736 3.592-29.806 20.928-24.501l111.11 34.085c15.596 4.792 33.957-6.446 46.902-18.711z" fill="#fec165" fill-rule="evenodd"/></g><g><path clip-rule="evenodd" d="m56.632 435.88 50.523 15.488-33.501-89.876-42.682-13.092c-17.335-5.305-28.854 3.765-20.928 24.501l14.341 37.565c8.07 21.079 13.116 19.539 32.247 25.414z" fill="#f8f2f0" fill-rule="evenodd"/></g><g><path clip-rule="evenodd" d="m347.651 187.959h68.742l29.766-37.707h-64.465z" fill="#f8f2f0" fill-rule="evenodd"/></g><g><path clip-rule="evenodd" d="m273.806 100.137c26.003-3.166 45.105-13.891 45.105-26.583 0-12.293-17.905-22.733-42.596-26.27 11.604 6.304 18.846 15.146 18.846 24.958 0 .428-.029.856-.057 1.312-.741 11.238-11.005 21.107-26.345 27.097 1.711-.144 3.393-.315 5.047-.514z" fill="#668d97" fill-rule="evenodd"/></g><g><path clip-rule="evenodd" d="m272.152 141.153c26.829-2.909 46.759-13.805 46.759-26.783v-40.817c0 12.693-19.103 23.417-45.105 26.583-1.654.2-3.336.371-5.047.513v40.845c1.141-.113 2.281-.227 3.393-.341z" fill="#547884" fill-rule="evenodd"/></g><g><path clip-rule="evenodd" d="m56.632 435.88 50.523 15.488-11.804-31.632-50.836-15.602c-19.16-5.876-24.206-4.336-32.247-25.414l12.117 31.746c8.07 21.079 13.116 19.539 32.247 25.414z" fill="#eee1dc" fill-rule="evenodd"/></g><g><path clip-rule="evenodd" d="m131.247 458.784c51.492 15.802 63.838 4.849 91.095-24.815l33.672-42.699 20.243-25.671 22.581-28.637 117.554-149.004h-37.179l-115.073 145.896-53.944 68.37c-27.229 29.664-39.574 40.617-91.066 24.815l-23.779-7.302 11.804 31.632z" fill="#fea610" fill-rule="evenodd"/></g><g><path clip-rule="evenodd" d="m379.213 187.959h37.18l29.766-37.707h-37.179z" fill="#eee1dc" fill-rule="evenodd"/></g><g><path clip-rule="evenodd" d="m408.98 150.252h37.179l52.576-66.658c7.185-9.127 8.211-21.677 0-29.921-2.794-2.767-6.13-4.592-9.694-5.476-.713 1.255-1.511 2.481-2.423 3.651z" fill="#fea610" fill-rule="evenodd"/></g><g><path clip-rule="evenodd" d="m13.295 83.593 52.575 66.658h38.462l-26.117-33.115-52.575-66.658c-.656-.799-1.226-1.626-1.768-2.481-3.878.77-7.584 2.653-10.578 5.676-8.239 8.243-7.213 20.793.001 29.92z" fill="#f46700" fill-rule="evenodd"/></g><g><path clip-rule="evenodd" d="m65.87 150.252 29.738 37.707h38.462l-26.117-33.115-3.621-4.592z" fill="#eee1dc" fill-rule="evenodd"/></g><g><path clip-rule="evenodd" d="m256.015 391.271 33.672 42.699c27.229 29.664 39.574 40.617 91.066 24.815l24.121-7.416 12.317-33.087-24.092 7.387c-51.492 15.802-63.838 4.849-91.066-24.815l-26.801-33.942z" fill="#f46700" fill-rule="evenodd"/></g><g><path clip-rule="evenodd" d="m404.874 451.368 50.494-15.488c19.16-5.876 24.206-4.336 32.247-25.414l14.341-37.565c.656-1.711 1.197-3.366 1.597-4.934l-3.592 9.384c-8.04 21.078-13.087 19.538-32.247 25.414l-24.435 7.502-26.088 8.015z" fill="#eee1dc" fill-rule="evenodd"/></g><g><path clip-rule="evenodd" d="m95.608 187.959 117.553 149.004 20.529-22.733-99.62-126.271z" fill="#f46700" fill-rule="evenodd"/></g><g><path d="m257.697 149.423c39.174 0 68.715-15.07 68.715-35.053v-40.817c0-19.984-29.541-35.053-68.715-35.053s-68.715 15.07-68.715 35.053v40.817c0 19.983 29.541 35.053 68.715 35.053zm0-15c-32.79 0-53.714-11.877-53.714-20.053v-18.454c12.389 7.841 31.499 12.691 53.714 12.691s41.325-4.85 53.714-12.691v18.454c0 8.176-20.925 20.053-53.714 20.053zm0-80.923c32.789 0 53.714 11.877 53.714 20.053s-20.925 20.053-53.714 20.053c-32.79 0-53.714-11.877-53.714-20.053s20.924-20.053 53.714-20.053z"/><path d="m506.578 345.904c-6.079-6.507-16.191-8.211-27.75-4.674l-111.113 34.086c-10.17 3.125-24.859-3.149-39.329-16.788l-19.732-21.88 42.404-53.74c2.566-3.252 2.01-7.968-1.242-10.533-3.253-2.566-7.968-2.01-10.534 1.242l-46.173 58.518c-.13.154-.256.309-.371.47l-22.369 28.35-53.741 68.147c-25.049 27.262-34.554 37.434-83.179 22.512l-20.548-6.307-26.906-72.182 53.884 16.53c22.287 6.849 45.371-12.01 54.264-20.436.142-.134.278-.274.409-.419l156.442-173.34h49.942l-39.358 49.892c-2.565 3.252-2.008 7.968 1.244 10.534 3.252 2.564 7.968 2.008 10.534-1.244l131.272-166.41c10.005-12.711 9.761-29.471-.589-39.862-11.057-11.061-28.78-11.121-40.35-.137-.14.133-.274.271-.403.414l-207.271 229.66-207.272-229.659c-.132-.146-.27-.287-.413-.423-11.582-10.96-29.302-10.896-40.34.145-10.385 10.39-10.629 27.158-.584 39.869l52.548 66.613c.06.077.118.155.181.23l29.413 37.286c.122.167.249.33.384.487l40.957 51.919c2.566 3.252 7.282 3.809 10.534 1.244s3.809-7.282 1.243-10.534l-31.573-40.024h49.943l84.875 94.043-32.356 35.852-49.391-62.603c-2.566-3.252-7.282-3.807-10.534-1.243-3.252 2.565-3.808 7.282-1.243 10.534l50.972 64.608-19.746 21.879c-14.471 13.638-29.158 19.91-39.333 16.787l-111.113-34.088c-11.552-3.535-21.666-1.832-27.744 4.675-3.638 3.895-8.786 12.928-2.385 29.672l14.344 37.571c7.977 20.84 15.002 23.609 30.13 27.885 2.059.582 4.392 1.242 6.92 2.018l74.616 22.904c16.748 5.14 29.798 7.544 40.64 7.544 25.059 0 38.322-12.845 58.178-34.455.127-.139.25-.282.366-.43l27.783-35.231 27.783 35.231c.116.147.237.29.364.427 19.838 21.613 33.089 34.459 58.147 34.459 10.842 0 23.894-2.405 40.646-7.546l74.612-22.904c2.528-.775 4.863-1.435 6.923-2.016 15.147-4.276 22.179-7.045 30.132-27.894l14.341-37.562c6.4-16.744 1.253-25.778-2.385-29.673zm-32.369-286.971c5.623-5.163 14.018-5.163 19.211.032 5.816 5.839 3.777 14.455-.575 19.983l-50.331 63.803h-43.951zm-89.184 98.819h45.656l-17.912 22.707h-48.237zm-366.426-98.777c5.192-5.193 13.588-5.191 19.225-.036l75.643 83.813h-43.952l-50.336-63.809c-4.367-5.527-6.412-14.133-.58-19.968zm80.662 121.484-17.913-22.707h45.657l20.493 22.707zm-47.67 246.139c-12.634-3.571-14.576-4.12-20.198-18.806l-14.343-37.568c-2.475-6.475-2.731-11.87-.666-14.08 1.926-2.063 6.791-2.287 12.388-.573l39.146 12.009 26.904 72.178-35.988-11.047c-2.688-.826-5.108-1.51-7.243-2.113zm326.962 25.016c-48.634 14.925-58.124 4.755-83.15-22.51l-29.837-37.835 16.58-21.024 17.083-21.651 18.218 20.202c.131.146.269.287.411.422 7.57 7.172 25.426 21.906 44.316 21.905 3.299 0 6.632-.45 9.945-1.467l53.92-16.541-26.906 72.182zm116.396-81.387-14.342 37.566c-5.602 14.687-7.546 15.236-20.191 18.805-2.136.603-4.557 1.286-7.248 2.111l-35.957 11.038 26.904-72.178 39.109-11.997c5.602-1.714 10.466-1.491 12.393.572 2.063 2.21 1.808 7.605-.668 14.083z"/></g></g></svg>