<svg id="Layer_1" enable-background="new 0 0 512 512" height="512" viewBox="0 0 512 512" width="512" xmlns="http://www.w3.org/2000/svg"><g><path d="m245.002 10.998c-57.997 0-111.276 20.165-153.239 53.849v382.307c41.963 33.683 95.242 53.849 153.239 53.849 135.311 0 245.002-109.691 245.002-245.002s-109.691-245.003-245.002-245.003z" fill="#2a428c"/><g><path d="m493.668 181.234c-3.162-.034-9.884.487-14.726 4.844-3.162 2.846-4.937 6.792-5.289 11.749-5.035-1.07-19.352-3.189-31.668 3.796-8.275 4.695-13.954 12.578-16.882 23.43l-.052.191v61.512l.052.191c.098.364 2.484 9.022 9.761 16.959 6.574 7.171 18.484 14.988 38.105 12.119.542 2.731 2.211 8.307 7.093 11.46 4.028 2.602 9.25 2.936 15.536.998 10.612-22.636 16.402-47.039 16.402-72.483 0-27.044-6.536-52.914-18.455-76.735z" fill="#ffdd40"/></g><path d="m496.451 326.625c-20.542 7.204-22.229-12.317-22.229-12.317-38.445 6.559-47.67-27.751-47.67-27.751v-61.115c9.885-36.64 48.536-25.731 48.536-25.731 0-19.035 20.174-16.904 20.181-16.903-8.366-17.652-19.669-34.222-33.456-49.361l-52.404 45.016c-3.949 3.392-9.852 3.285-13.604-.323-27.019-25.981-63.568-43.359-103.272-51.983l-21.297 105.529 49.76 146.262c28.541-9.747 54.396-24.462 74.809-44.091 3.752-3.608 9.656-3.715 13.604-.323l52.404 45.016c14.453-15.867 26.167-33.312 34.638-51.925z" fill="#ffb332"/><path d="m104.498 152.503c-7 4.113-13.719 8.618-20.102 13.518-5.072 3.893-9.783 7.941-14.128 12.12-3.752 3.608-9.656 3.715-13.604.323l-32.757-28.139c-15.321 31.996-23.907 67.832-23.907 105.675s8.586 73.679 23.906 105.676l32.757-28.14c3.949-3.392 9.852-3.285 13.604.323 4.345 4.179 9.057 8.227 14.128 12.12 6.384 4.901 13.102 9.406 20.102 13.518v-206.994z" fill="#e80054"/><path d="m473.778 196.692c-.045.376-.097.747-.125 1.135-5.035-1.07-19.352-3.189-31.668 3.796-8.275 4.695-13.954 12.578-16.882 23.43l-.052.191v61.512l.052.191c.098.364 2.484 9.022 9.761 16.959 6.574 7.171 18.484 14.988 38.105 12.119.043.217.096.458.155.708 8.882-19.349 13.515-39.812 13.515-60.733.001-20.407-4.402-40.381-12.861-59.308z" fill="#ff4155"/><path d="m474.216 314.31c-38.44 6.555-47.664-27.752-47.664-27.752v-61.115c9.873-36.596 48.44-25.758 48.534-25.732-7.429-17.616-18.344-34.364-32.49-49.755l-33.186 28.508c-3.949 3.392-9.852 3.285-13.604-.323-4.346-4.179-9.057-8.227-14.129-12.12-2.97-2.28-6.031-4.467-9.158-6.581v193.12c3.127-2.114 6.188-4.301 9.158-6.581 5.072-3.893 9.784-7.941 14.129-12.12 3.752-3.608 9.656-3.715 13.604-.323l33.186 28.508c13.604-14.801 24.219-30.858 31.62-47.734z" fill="#e80054"/><path d="m401.847 180.882c-2.201-.198-4.341-1.106-6.041-2.74-4.346-4.179-9.057-8.227-14.129-12.12-50.126-38.481-123.42-53.367-191.172-43.102l3.524 7.199s-16.694 14.27 0 30.964v10.259s-31.881 26.292-16.455 65.1v39.114s-12.516 43.511 16.455 65.102v10.259s-14.626 16.242 1.985 31.225c2.347 2.117 2.842 4.847 1.965 7.973 65.622 8.113 135.411-7.066 183.698-44.136 5.072-3.893 9.784-7.941 14.129-12.12 1.7-1.634 3.84-2.542 6.041-2.74 18.514-21.858 29.199-47.581 29.199-75.118-.001-27.538-10.685-53.262-29.199-75.119z" fill="#6faf46"/><path d="m70.268 178.141c-1.699 1.634-3.84 2.542-6.04 2.741-18.514 21.857-29.199 47.581-29.199 75.118s10.685 53.261 29.199 75.119c2.2.198 4.34 1.106 6.04 2.74 4.345 4.179 9.057 8.227 14.128 12.119 32.254 24.761 73.065 39.416 115.509 44.363.965-3.22.511-6.032-1.892-8.199-16.611-14.983-1.985-31.225-1.985-31.225v-10.259c-28.971-21.592-16.455-65.102-16.455-65.102v-39.114c-15.426-38.808 16.455-65.1 16.455-65.1v-10.259c-16.694-16.694 0-30.964 0-30.964l-3.66-7.477c-39.72 5.739-77.632 20.089-107.972 43.38-5.071 3.893-9.783 7.94-14.128 12.119z" fill="#5ea033"/><path d="m70.268 178.141c-1.699 1.634-3.84 2.542-6.04 2.741-18.514 21.857-29.199 47.581-29.199 75.118s10.685 53.261 29.199 75.119c2.2.198 4.34 1.106 6.04 2.74 4.345 4.179 9.057 8.227 14.128 12.119 32.254 24.761 73.065 39.416 115.509 44.363.965-3.22.511-6.032-1.892-8.199-16.611-14.983-1.985-31.225-1.985-31.225v-10.259c-28.971-21.592-16.455-65.102-16.455-65.102v-39.114c-15.426-38.808 16.455-65.1 16.455-65.1v-10.259c-16.694-16.694 0-30.964 0-30.964l-3.66-7.477c-39.72 5.739-77.632 20.089-107.972 43.38-5.071 3.893-9.783 7.94-14.128 12.119z" fill="#5ea033"/><path d="m358.328 168.777h-164.299v2.565s-31.881 26.292-16.455 65.1v39.114s-12.516 43.511 16.455 65.102v2.565h164.299c4.743 0 8.587-3.845 8.587-8.587v-157.272c0-4.743-3.845-8.587-8.587-8.587z" fill="#92c357"/><path d="m196.029 171.342v-2.565h-88.282c-4.743 0-8.587 3.845-8.587 8.587v157.272c0 4.743 3.845 8.587 8.587 8.587h88.282v-2.565c-28.971-21.592-16.455-65.102-16.455-65.102v-39.114c-15.426-38.808 16.455-65.1 16.455-65.1z" fill="#6faf46"/><g><path d="m150.097 308.211h-49.586c-2.833 0-5.129-2.297-5.129-5.129s2.297-5.129 5.129-5.129h48.497v-83.905h-48.833c-2.833 0-5.129-2.297-5.129-5.129 0-2.833 2.297-5.129 5.129-5.129h49.921c5.057 0 9.171 4.114 9.171 9.171v86.082c0 5.055-4.114 9.168-9.17 9.168zm0-94.164h.008z" fill="#d3dcfb"/></g><g><path d="m121.995 286.557h-21.82c-2.833 0-5.129-2.297-5.129-5.129s2.297-5.129 5.129-5.129h19.021v-40.596h-18.937c-2.833 0-5.129-2.297-5.129-5.129 0-2.833 2.297-5.129 5.129-5.129h21.736c4.113 0 7.46 3.346 7.46 7.459v46.195c0 4.112-3.347 7.458-7.46 7.458zm0-50.855h.008z" fill="#e9efff"/></g><g><path d="m154.642 287.71c-2.833 0-5.129-2.297-5.129-5.129 0-2.833 2.297-5.129 5.129-5.129 11.828 0 21.451-9.622 21.451-21.451s-9.623-21.451-21.451-21.451c-2.833 0-5.129-2.297-5.129-5.129s2.297-5.129 5.129-5.129c17.485 0 31.71 14.225 31.71 31.71 0 17.482-14.225 31.708-31.71 31.708z" fill="#e9efff"/></g><g><path d="m233.037 347.45c-2.833 0-5.129-2.297-5.129-5.129v-172.641c0-2.833 2.297-5.129 5.129-5.129 2.833 0 5.129 2.297 5.129 5.129v172.641c0 2.832-2.296 5.129-5.129 5.129z" fill="#d3dcfb"/></g><g><path d="m233.037 287.71c-17.485 0-31.71-14.225-31.71-31.71s14.225-31.71 31.71-31.71 31.71 14.225 31.71 31.71c0 17.484-14.225 31.71-31.71 31.71zm0-53.161c-11.828 0-21.451 9.623-21.451 21.451s9.623 21.451 21.451 21.451 21.451-9.622 21.451-21.451-9.623-21.451-21.451-21.451z" fill="#e9efff"/></g><g><path d="m138.568 261.829c-2.833 0-5.129-2.297-5.129-5.129v-1.4c0-2.833 2.297-5.129 5.129-5.129s5.129 2.297 5.129 5.129v1.399c0 2.833-2.297 5.13-5.129 5.13z" fill="#e9efff"/></g><g><path d="m365.563 308.211h-49.586c-5.057 0-9.171-4.113-9.171-9.17v-86.082c0-5.057 4.114-9.171 9.171-9.171h49.921c2.833 0 5.129 2.297 5.129 5.129 0 2.833-2.297 5.129-5.129 5.129h-48.833v83.905h48.498c2.833 0 5.129 2.297 5.129 5.129s-2.296 5.131-5.129 5.131z" fill="#d3dcfb"/></g><g><path d="m365.899 286.557h-21.82c-4.113 0-7.46-3.346-7.46-7.46v-46.195c0-4.113 3.346-7.459 7.46-7.459h21.736c2.833 0 5.129 2.297 5.129 5.129 0 2.833-2.297 5.129-5.129 5.129h-18.937v40.596h19.021c2.833 0 5.129 2.297 5.129 5.129s-2.296 5.131-5.129 5.131z" fill="#e9efff"/></g><g><path d="m311.432 287.71c-17.485 0-31.71-14.225-31.71-31.71s14.225-31.71 31.71-31.71c2.833 0 5.129 2.297 5.129 5.129s-2.297 5.129-5.129 5.129c-11.828 0-21.451 9.623-21.451 21.451s9.623 21.451 21.451 21.451c2.833 0 5.129 2.297 5.129 5.129.001 2.834-2.296 5.131-5.129 5.131z" fill="#e9efff"/></g><g><path d="m327.507 261.829c-2.833 0-5.129-2.297-5.129-5.129v-1.4c0-2.833 2.297-5.129 5.129-5.129 2.833 0 5.129 2.297 5.129 5.129v1.399c0 2.833-2.297 5.13-5.129 5.13z" fill="#e9efff"/></g><g><path d="m358.327 350.917h-250.581c-7.563 0-13.717-6.153-13.717-13.717v-162.401c0-7.564 6.153-13.717 13.717-13.717h250.581c7.564 0 13.717 6.153 13.717 13.717v162.401c.001 7.564-6.153 13.717-13.717 13.717zm-250.581-179.575c-1.907 0-3.458 1.551-3.458 3.458v162.401c0 1.907 1.551 3.458 3.458 3.458h250.581c1.907 0 3.458-1.551 3.458-3.458v-162.402c0-1.907-1.552-3.458-3.458-3.458h-250.581z" fill="#e9efff"/></g><path d="m449.342 120.81c-51.15-48.176-129.031-78.963-216.305-78.963-17.453 0-34.526 1.241-51.089 3.598l1.81 5.309c-2.561 3.464-13.541 19.594-10.599 37.941 1.877 11.706 9.065 21.823 21.369 30.083v5.461c73.212-9.908 152.662 9.033 201.278 55.78 3.752 3.608 9.655 3.715 13.604.323l50.002-42.953c-3.143-5.668-6.503-11.198-10.07-16.579z" fill="#d3dcfb"/><path d="m196.029 117.973c-41.971-27.527-10.593-66.947-10.593-66.947l-1.976-5.796c-39.654 5.468-76.397 17.369-108.339 34.245-21.386 20.586-39.033 45.021-51.84 72.19l33.383 28.677c3.949 3.392 9.852 3.285 13.604-.323 32.444-31.2 77.824-49.749 125.761-55.972z" fill="#bec8f7"/><path d="m409.41 331.657c-3.949-3.392-9.852-3.285-13.604.323-48.616 46.748-128.066 65.689-201.278 55.781v5.444c-3.412 2.351-17.879 13.244-20.962 30.873-2.158 12.342 1.805 25.114 11.779 37.961 1.328 1.71 2.39 3.511 3.197 5.394 14.489 1.785 29.348 2.721 44.494 2.721 87.274 0 165.154-30.786 216.304-78.963 3.568-5.382 6.928-10.912 10.07-16.58z" fill="#d3dcfb"/><path d="m196.029 394.008v-6.055c-47.937-6.223-93.317-24.772-125.761-55.972-3.752-3.608-9.656-3.715-13.604-.323l-33.384 28.677c12.807 27.169 30.455 51.605 51.841 72.19 33.757 17.835 72.874 30.119 115.125 35.119-.873-2.243-2.086-4.425-3.717-6.525-31.802-40.963 9.5-67.111 9.5-67.111z" fill="#bec8f7"/><g fill="#e9efff"><path d="m233.037 35.862c-50.259 0-98.823 10.27-141.275 28.984-11.253 9.034-21.695 19.035-31.192 29.887 48.16-29.965 108.859-46.903 172.467-46.903 87.614 0 169.733 32.111 221.124 86.18l-48.651 41.793c-1.616 1.387-4.057 1.344-5.557-.098-39.442-37.926-100.051-59.801-166.286-60.014-.325-.001-.645-.002-.97-.002-66.216 0-126.89 21.848-166.579 60.015-1.5 1.444-3.941 1.485-5.557.098l-34.575-29.702c-1.856 3.692-3.62 7.437-5.292 11.233l32.068 27.547c3.063 2.632 6.815 3.938 10.551 3.938 4.007 0 7.998-1.504 11.1-4.487 78.566-75.553 238.669-75.553 317.242 0 5.996 5.766 15.304 6.001 21.652.548l53.359-45.837c1.221-1.049 1.969-2.547 2.072-4.154.104-1.607-.445-3.188-1.522-4.386-53.28-59.259-140.824-94.64-234.179-94.64z"/><path d="m466.668 372.955-53.359-45.836c-6.348-5.454-15.656-5.218-21.651.548-78.573 75.552-238.676 75.553-317.242.001-5.996-5.766-15.303-6.003-21.652-.548l-32.067 27.546c1.672 3.795 3.435 7.541 5.291 11.232l34.575-29.701c1.616-1.387 4.057-1.346 5.557.098 39.691 38.168 100.356 60.017 166.577 60.015.321-.001.65-.001.971-.002 66.235-.214 126.843-22.088 166.286-60.014 1.5-1.443 3.941-1.485 5.556-.097l48.651 41.792c-51.39 54.068-133.509 86.18-221.124 86.18-63.608 0-124.307-16.938-172.466-46.902 9.497 10.852 19.938 20.853 31.192 29.886 42.451 18.715 91.015 28.984 141.274 28.984 93.355 0 180.9-35.381 234.182-94.643 1.077-1.197 1.626-2.778 1.522-4.386-.104-1.606-.851-3.103-2.073-4.153z"/></g></g></svg>